<svg xmlns="http://www.w3.org/2000/svg" xmlns:xlink="http://www.w3.org/1999/xlink" width="110.59034729003906" height="110.37872314453125" viewBox="0 0 110.59034729003906 110.37872314453125" fill="none">
<g filter="url(#filter_4_4)">
<path d="M45.5219 38.1309C44.5629 38.0703 43.6221 37.6944 42.8886 37.0035C38.313 32.6938 35.4901 26.782 35.4901 20.2593C35.4901 13.7365 38.313 7.82462 42.8886 3.51498C44.497 1.99997 47.1018 1.99997 48.7103 3.51498C53.2859 7.82462 56.1087 13.7365 56.1087 20.2593C56.1087 26.782 53.2859 32.6938 48.7103 37.0035C48.0987 37.5796 47.343 37.9365 46.5528 38.0746L46.5528 18.2052C47.1543 18.0085 47.5853 17.4771 47.5853 16.8524C47.5853 16.0603 46.8923 15.4182 46.0373 15.4182C45.1823 15.4182 44.4892 16.0603 44.4892 16.8524C44.4892 17.4771 44.9203 18.0085 45.5219 18.2052L45.5219 38.1309ZM39.5821 41.4827C39.6336 40.821 39.4968 40.1366 39.1473 39.4967C36.201 34.103 31.056 29.7362 24.3846 27.6527C17.7131 25.5691 10.7648 26.159 4.89539 28.7995C2.83204 29.7277 2 32.0146 3.03573 33.9108C5.98199 39.3045 11.127 43.6712 17.7984 45.7548C24.4698 47.8383 31.4182 47.2484 37.2876 44.6079C38.3167 44.145 39.0396 43.344 39.3771 42.422L17.9717 36.6911C17.5862 37.1904 16.8806 37.4209 16.2201 37.2146C15.4111 36.9619 14.9762 36.1494 15.2489 35.3997C15.5217 34.65 16.3988 34.2471 17.2079 34.4998C17.8231 34.692 18.2219 35.2078 18.2579 35.7735L39.5821 41.4827ZM41.1904 49.116C40.4592 48.7816 39.6105 48.6471 38.7366 48.7756C32.2926 49.7234 26.2309 52.9249 22.048 58.1715C17.8651 63.4181 16.3445 69.7273 17.2612 75.7125C17.5834 77.8166 19.6787 79.2504 21.9441 78.9172C28.3881 77.9694 34.4498 74.7679 38.6327 69.5213C42.8156 64.2747 44.3362 57.9655 43.4195 51.9802C43.2743 51.0321 42.7689 50.2199 42.0501 49.6443L28.469 67.0845C28.8355 67.5743 28.845 68.2453 28.4415 68.7515C27.9342 69.3878 26.9662 69.5226 26.2794 69.0525C25.5927 68.5826 25.4471 67.6857 25.9545 67.0495C26.3508 66.5524 27.0281 66.3614 27.6329 66.5256L41.1904 49.116ZM49.5395 49.6422C48.7906 50.2122 48.2578 51.0326 48.0982 51.9986C47.1107 57.9741 48.5565 64.2983 52.6771 69.5871C56.7978 74.8759 62.8213 78.1387 69.2537 79.1519C71.5151 79.5079 73.627 78.0955 73.9743 75.9949C74.9617 70.0193 73.5158 63.6951 69.3952 58.4063C65.2746 53.1175 59.2511 49.8548 52.8186 48.8416C51.9666 48.7074 51.1358 48.8242 50.4126 49.1344L62.87 67.1003C63.4589 66.9724 64.0996 67.1735 64.4758 67.6562C64.975 68.297 64.8191 69.1914 64.1275 69.654C63.4358 70.1165 62.4704 69.9721 61.9712 69.3312C61.5604 68.8041 61.5931 68.1053 62.0027 67.6166L49.5395 49.6422ZM52.3327 42.7169C52.6892 43.5611 53.3759 44.2899 54.3304 44.7276C60.1782 47.409 67.1216 48.0474 73.8097 46.0105C80.498 43.9736 85.6783 39.6429 88.6684 34.2699C89.7195 32.3811 88.9061 30.0885 86.8503 29.1458C81.0026 26.4644 74.0592 25.826 67.3711 27.8629C60.6829 29.8998 55.5025 34.2305 52.5124 39.6036C52.1211 40.3067 51.9882 41.0659 52.0816 41.7906L73.4154 36.7617C73.4698 36.2106 73.8686 35.7153 74.4721 35.5315C75.2828 35.2846 76.1561 35.6934 76.4226 36.4445C76.6891 37.1956 76.248 38.0047 75.4372 38.2516C74.7629 38.4571 74.0453 38.2088 73.6696 37.6873L52.3327 42.7169Z" fill-rule="evenodd"  fill="url(#linear_fill_4_4)" >
</path>
</g>
<g filter="url(#filter_4_8)">
<path d="M54.5903 104.379C82.2046 104.379 104.59 81.993 104.59 54.3787C104.59 26.7645 82.2046 4.37872 54.5903 4.37872C54.1671 4.37872 53.745 4.38398 53.3243 4.39444C78.9875 5.04886 99.5903 26.0578 99.5903 51.8787C99.5903 78.1123 78.3239 99.3787 52.0903 99.3787C26.2694 99.3787 5.26048 78.7759 4.60606 53.1127C4.59561 53.5334 4.59035 53.9555 4.59035 54.3787C4.59035 81.993 26.9761 104.379 54.5903 104.379Z" fill-rule="evenodd"  fill="url(#linear_fill_4_8)" >
</path>
</g>
<defs>
<linearGradient id="linear_fill_4_4" x1="82.59944438934326" y1="73.268798828125" x2="11.090057373046875" y2="13.69854736328125" gradientUnits="userSpaceOnUse">
<stop offset="0" stop-color="#A33BE3" stop-opacity="0.5" />
<stop offset="0.9954" stop-color="#FC6D8E"  />
</linearGradient>
<filter id="filter_4_4" x="0" y="0" width="95.71951293945312" height="85.5079345703125" filterUnits="userSpaceOnUse" color-interpolation-filters="sRGB">
<feFlood flood-opacity="0" result="feFloodId_4_4"/>
<feColorMatrix in="SourceAlpha" type="matrix" values="0 0 0 0 0 0 0 0 0 0 0 0 0 0 0 0 0 0 127 0" result="hardAlpha_4_4"/>
<feOffset dx="2" dy="2"/>
<feGaussianBlur stdDeviation="2"/>
<feComposite in2="hardAlpha_4_4" operator="out"/>
<feColorMatrix type="matrix" values="0 0 0 0 0.6039215686274509 0 0 0 0 0.2627450980392157 0 0 0 0 0.5686274509803921 0 0 0 0.75 0"/>
<feBlend mode="normal" in2="feFloodId_4_4" result="dropShadow_1_4_4"/>
<feBlend mode="normal" in="SourceGraphic" in2="dropShadow_1_4_4" result="shape_4_4"/>
</filter>
<linearGradient id="linear_fill_4_8" x1="4.5903472900390625" y1="54.37872314453125" x2="104.59033966064453" y2="54.37872314453125" gradientUnits="userSpaceOnUse">
<stop offset="0" stop-color="#C812FF"  />
<stop offset="1" stop-color="#FF85D0"  />
</linearGradient>
<filter id="filter_4_8" x="2.5903472900390625" y="2.37872314453125" width="108" height="108" filterUnits="userSpaceOnUse" color-interpolation-filters="sRGB">
<feFlood flood-opacity="0" result="feFloodId_4_8"/>
<feColorMatrix in="SourceAlpha" type="matrix" values="0 0 0 0 0 0 0 0 0 0 0 0 0 0 0 0 0 0 127 0" result="hardAlpha_4_8"/>
<feOffset dx="2" dy="2"/>
<feGaussianBlur stdDeviation="2"/>
<feComposite in2="hardAlpha_4_8" operator="out"/>
<feColorMatrix type="matrix" values="0 0 0 0 0.8588235294117647 0 0 0 0 0.22745098039215686 0 0 0 0 0.9372549019607843 0 0 0 0.75 0"/>
<feBlend mode="normal" in2="feFloodId_4_8" result="dropShadow_1_4_8"/>
<feBlend mode="normal" in="SourceGraphic" in2="dropShadow_1_4_8" result="shape_4_8"/>
</filter>
</defs>
</svg>
